<svg width="20" height="20" viewBox="0 0 20 20" fill="none" xmlns="http://www.w3.org/2000/svg">
<path d="M9.99992 1.66626C6.67161 1.66626 3.96387 4.37401 3.96387 7.70226C3.96387 11.8328 9.3655 17.8965 9.5955 18.1526C9.8115 18.3932 10.1887 18.3928 10.4043 18.1526C10.6343 17.8965 16.0359 11.8328 16.0359 7.70226C16.0358 4.37401 13.3282 1.66626 9.99992 1.66626ZM9.99992 10.7392C8.32535 10.7392 6.96305 9.37684 6.96305 7.70226C6.96305 6.02772 8.32538 4.66541 9.99992 4.66541C11.6744 4.66541 13.0368 6.02775 13.0368 7.70229C13.0368 9.37684 11.6744 10.7392 9.99992 10.7392Z" fill="white"/>
</svg>
