<svg width="18" height="17" viewBox="0 0 18 17" fill="none" xmlns="http://www.w3.org/2000/svg">
<path fill-rule="evenodd" clip-rule="evenodd" d="M9.00008 0.731445C8.2387 0.731445 7.49186 0.940069 6.84071 1.33466L2.67404 3.85966C2.06132 4.23095 1.55468 4.75397 1.20307 5.37819C0.851456 6.00241 0.666736 6.70675 0.666748 7.42318V12.6665C0.666748 13.7716 1.10573 14.8314 1.88714 15.6128C2.66854 16.3942 3.72835 16.8332 4.83341 16.8332H13.1667C14.2718 16.8332 15.3316 16.3942 16.113 15.6128C16.8944 14.8314 17.3334 13.7716 17.3334 12.6665V7.42235C17.3332 6.70608 17.1484 6.00176 16.7968 5.37774C16.4452 4.75372 15.9387 4.23087 15.3261 3.85966L11.1595 1.33466C10.5083 0.940076 9.76146 0.731445 9.00008 0.731445ZM7.70447 2.76003C8.09516 2.52328 8.54325 2.39811 9.00008 2.39811C9.45691 2.39811 9.905 2.52328 10.2957 2.76003L14.4624 5.28503C14.8299 5.50776 15.1338 5.82147 15.3448 6.19589C15.5557 6.57025 15.6666 6.99266 15.6667 7.42235V12.6665C15.6667 13.3296 15.4034 13.9654 14.9345 14.4343C14.4657 14.9031 13.8298 15.1665 13.1667 15.1665H12.3334V12.6665C12.3334 11.7825 11.9822 10.9346 11.3571 10.3095C10.732 9.68437 9.88413 9.33318 9.00008 9.33318C8.11603 9.33318 7.26818 9.68437 6.64306 10.3095C6.01794 10.9346 5.66675 11.7825 5.66675 12.6665V15.1665H4.83341C4.17037 15.1665 3.53449 14.9031 3.06565 14.4343C2.59681 13.9654 2.33341 13.3296 2.33341 12.6665V7.42318C2.33341 6.99332 2.44424 6.57069 2.65521 6.19616C2.86618 5.82163 3.17016 5.50782 3.53779 5.28504L7.70447 2.76003ZM10.1786 11.488C10.4912 11.8006 10.6667 12.2245 10.6667 12.6665V15.1665H7.33341V12.6665C7.33341 12.2245 7.50901 11.8006 7.82157 11.488C8.13413 11.1754 8.55805 10.9999 9.00008 10.9999C9.44211 10.9999 9.86603 11.1754 10.1786 11.488Z" fill="#2E3F49"/>
</svg>
