<svg width="20" height="21" viewBox="0 0 20 21" fill="none" xmlns="http://www.w3.org/2000/svg">
<path fill-rule="evenodd" clip-rule="evenodd" d="M10.0001 2.73145C9.2387 2.73145 8.49186 2.94007 7.84071 3.33466L3.67404 5.85966C3.06132 6.23095 2.55468 6.75397 2.20307 7.37819C1.85146 8.00241 1.66674 8.70675 1.66675 9.42318V14.6665C1.66675 15.7716 2.10573 16.8314 2.88714 17.6128C3.66854 18.3942 4.72835 18.8332 5.83341 18.8332H14.1667C15.2718 18.8332 16.3316 18.3942 17.113 17.6128C17.8944 16.8314 18.3334 15.7716 18.3334 14.6665V9.42235C18.3332 8.70608 18.1484 8.00176 17.7968 7.37774C17.4452 6.75372 16.9387 6.23087 16.3261 5.85966L12.1595 3.33466C11.5083 2.94008 10.7615 2.73145 10.0001 2.73145ZM8.70447 4.76003C9.09516 4.52328 9.54325 4.39811 10.0001 4.39811C10.4569 4.39811 10.905 4.52328 11.2957 4.76003L15.4624 7.28503C15.8299 7.50776 16.1338 7.82147 16.3448 8.19589C16.5557 8.57025 16.6666 8.99266 16.6667 9.42235V14.6665C16.6667 15.3296 16.4034 15.9654 15.9345 16.4343C15.4657 16.9031 14.8298 17.1665 14.1667 17.1665H13.3334V14.6665C13.3334 13.7825 12.9822 12.9346 12.3571 12.3095C11.732 11.6844 10.8841 11.3332 10.0001 11.3332C9.11603 11.3332 8.26818 11.6844 7.64306 12.3095C7.01794 12.9346 6.66675 13.7825 6.66675 14.6665V17.1665H5.83341C5.17037 17.1665 4.53449 16.9031 4.06565 16.4343C3.59681 15.9654 3.33341 15.3296 3.33341 14.6665V9.42318C3.33341 8.99332 3.44424 8.57069 3.65521 8.19616C3.86618 7.82163 4.17016 7.50782 4.53779 7.28504L8.70447 4.76003ZM11.1786 13.488C11.4912 13.8006 11.6667 14.2245 11.6667 14.6665V17.1665H8.33341V14.6665C8.33341 14.2245 8.50901 13.8006 8.82157 13.488C9.13413 13.1754 9.55805 12.9999 10.0001 12.9999C10.4421 12.9999 10.866 13.1754 11.1786 13.488Z" fill="white"/>
</svg>
