<svg width="20" height="20" viewBox="0 0 20 20" fill="none" xmlns="http://www.w3.org/2000/svg">
<g clip-path="url(#clip0_4856_273)">
<path d="M8.33325 7.5C8.33325 7.01086 8.51569 6.69803 8.75521 6.4948C9.01285 6.2762 9.38605 6.14584 9.79159 6.14584C10.1971 6.14584 10.5703 6.2762 10.828 6.4948C11.0675 6.69803 11.2499 7.01086 11.2499 7.5C11.2499 7.86431 11.1641 8.06656 11.0644 8.21614C10.948 8.39065 10.7949 8.52826 10.536 8.76098L10.4841 8.80767C10.2178 9.04738 9.86739 9.37142 9.60023 9.84341C9.3249 10.3298 9.16659 10.9176 9.16659 11.6667C9.16659 12.1269 9.53968 12.5 9.99992 12.5C10.4602 12.5 10.8333 12.1269 10.8333 11.6667C10.8333 11.1658 10.9354 10.8681 11.0507 10.6644C11.1741 10.4463 11.3446 10.2755 11.5991 10.0465C11.622 10.0259 11.6461 10.0044 11.6713 9.9819C11.899 9.77892 12.2109 9.50087 12.4511 9.14064C12.742 8.70428 12.9166 8.17736 12.9166 7.5C12.9166 6.53081 12.5261 5.74989 11.9063 5.22395C11.3045 4.71339 10.5319 4.47917 9.79159 4.47917C9.05128 4.47917 8.27866 4.71339 7.67692 5.22395C7.05706 5.74989 6.66659 6.53081 6.66659 7.5C6.66659 7.96024 7.03968 8.33334 7.49992 8.33334C7.96016 8.33334 8.33325 7.96024 8.33325 7.5Z" fill="#2E3F49"/>
<path d="M10.6249 15.5597C10.9345 15.2192 10.9094 14.6922 10.5688 14.3826C10.2283 14.073 9.70125 14.0981 9.39165 14.4386L9.38332 14.4478C9.07372 14.7883 9.0988 15.3153 9.43934 15.6249C9.77988 15.9345 10.3069 15.9095 10.6165 15.5689L10.6249 15.5597Z" fill="#2E3F49"/>
<path fill-rule="evenodd" clip-rule="evenodd" d="M9.99992 0.833336C4.93718 0.833336 0.833252 4.93727 0.833252 10C0.833252 15.0627 4.93718 19.1667 9.99992 19.1667C15.0627 19.1667 19.1666 15.0627 19.1666 10C19.1666 4.93727 15.0627 0.833336 9.99992 0.833336ZM2.49992 10C2.49992 5.85774 5.85766 2.5 9.99992 2.5C14.1422 2.5 17.4999 5.85774 17.4999 10C17.4999 14.1423 14.1422 17.5 9.99992 17.5C5.85766 17.5 2.49992 14.1423 2.49992 10Z" fill="#2E3F49"/>
</g>
<defs>
<clipPath id="clip0_4856_273">
<rect width="20" height="20" fill="white"/>
</clipPath>
</defs>
</svg>
