<svg width="14" height="18" viewBox="0 0 14 18" fill="none" xmlns="http://www.w3.org/2000/svg">
<path d="M2.83325 0.666672C2.17021 0.666672 1.53433 0.930064 1.06548 1.3989C0.596644 1.86775 0.333252 2.50363 0.333252 3.16667V14.8333C0.333252 15.4964 0.596644 16.1323 1.06548 16.6011C1.53433 17.0699 2.17021 17.3333 2.83325 17.3333H11.1666C11.8296 17.3333 12.4655 17.0699 12.9344 16.6011C13.4032 16.1323 13.6666 15.4964 13.6666 14.8333V14C13.6666 13.5398 13.2935 13.1667 12.8333 13.1667C12.373 13.1667 11.9999 13.5398 11.9999 14V14.8333C11.9999 15.0544 11.9121 15.2663 11.7558 15.4226C11.5996 15.5789 11.3876 15.6667 11.1666 15.6667H2.83325C2.61224 15.6667 2.40028 15.5789 2.244 15.4226C2.08772 15.2663 1.99992 15.0544 1.99992 14.8333V3.16667C1.99992 2.94566 2.08772 2.7337 2.244 2.57742C2.40028 2.42114 2.61224 2.33334 2.83325 2.33334H11.1666C11.3876 2.33334 11.5996 2.42114 11.7558 2.57742C11.9121 2.7337 11.9999 2.94566 11.9999 3.16667V4.00001C11.9999 4.46024 12.373 4.83334 12.8333 4.83334C13.2935 4.83334 13.6666 4.46024 13.6666 4.00001V3.16667C13.6666 2.50363 13.4032 1.86775 12.9344 1.3989C12.4655 0.930064 11.8296 0.666672 11.1666 0.666672H2.83325Z" fill="white"/>
<path d="M10.9225 5.91075C10.5971 5.58531 10.0694 5.58531 9.744 5.91075C9.41856 6.23619 9.41856 6.76382 9.744 7.08926L10.8214 8.16667H6.99992C6.53968 8.16667 6.16659 8.53977 6.16659 9C6.16659 9.46024 6.53968 9.83334 6.99992 9.83334H10.8214L9.744 10.9107C9.41856 11.2362 9.41856 11.7638 9.744 12.0893C10.0694 12.4147 10.5971 12.4147 10.9225 12.0893L13.4225 9.58926C13.7479 9.26382 13.7479 8.73619 13.4225 8.41075L10.9225 5.91075Z" fill="white"/>
</svg>
