<svg width="20" height="21" viewBox="0 0 20 21" fill="none" xmlns="http://www.w3.org/2000/svg">
<path fill-rule="evenodd" clip-rule="evenodd" d="M6.66675 2.16668C6.66675 1.70644 6.29365 1.33334 5.83341 1.33334C5.37318 1.33334 5.00008 1.70644 5.00008 2.16668V3.00001H4.16675C3.50371 3.00001 2.86782 3.2634 2.39898 3.73224C1.93014 4.20108 1.66675 4.83697 1.66675 5.50001V16.3333C1.66675 16.9964 1.93014 17.6323 2.39898 18.1011C2.86782 18.57 3.50371 18.8333 4.16675 18.8333H15.8334C16.4965 18.8333 17.1323 18.57 17.6012 18.1011C18.07 17.6323 18.3334 16.9964 18.3334 16.3333V5.50001C18.3334 4.83697 18.07 4.20108 17.6012 3.73224C17.1323 3.2634 16.4965 3.00001 15.8334 3.00001H15.4167C14.9565 3.00001 14.5834 3.37311 14.5834 3.83334C14.5834 4.29358 14.9565 4.66668 15.4167 4.66668H15.8334C16.0544 4.66668 16.2664 4.75447 16.4227 4.91075C16.5789 5.06703 16.6667 5.279 16.6667 5.50001V8.00001H3.33341V5.50001C3.33341 5.279 3.42121 5.06703 3.57749 4.91075C3.73377 4.75447 3.94573 4.66668 4.16675 4.66668H5.00008V5.50001C5.00008 5.96025 5.37318 6.33334 5.83341 6.33334C6.29365 6.33334 6.66675 5.96025 6.66675 5.50001V2.16668ZM3.57749 16.9226C3.42121 16.7663 3.33341 16.5544 3.33341 16.3333V9.66668H16.6667V16.3333C16.6667 16.5544 16.5789 16.7663 16.4227 16.9226C16.2664 17.0789 16.0544 17.1667 15.8334 17.1667H4.16675C3.94573 17.1667 3.73377 17.0789 3.57749 16.9226Z" fill="#2E3F49"/>
<path d="M13.3334 2.16668C13.3334 1.70644 12.9603 1.33334 12.5001 1.33334C12.0398 1.33334 11.6667 1.70644 11.6667 2.16668V3.00001H8.75008C8.28984 3.00001 7.91675 3.37311 7.91675 3.83334C7.91675 4.29358 8.28984 4.66668 8.75008 4.66668H11.6667V5.50001C11.6667 5.96025 12.0398 6.33334 12.5001 6.33334C12.9603 6.33334 13.3334 5.96025 13.3334 5.50001V2.16668Z" fill="#2E3F49"/>
</svg>
