<svg width="20" height="21" viewBox="0 0 20 21" fill="none" xmlns="http://www.w3.org/2000/svg">
<path fill-rule="evenodd" clip-rule="evenodd" d="M9.99992 7.16667C9.11586 7.16667 8.26802 7.51785 7.6429 8.14298C7.01777 8.7681 6.66658 9.61594 6.66658 10.5C6.66658 11.3841 7.01777 12.2319 7.6429 12.857C8.26802 13.4821 9.11586 13.8333 9.99992 13.8333C10.884 13.8333 11.7318 13.4821 12.3569 12.857C12.9821 12.2319 13.3333 11.3841 13.3333 10.5C13.3333 9.61594 12.9821 8.7681 12.3569 8.14298C11.7318 7.51785 10.884 7.16667 9.99992 7.16667ZM8.82141 9.32149C9.13397 9.00893 9.55789 8.83333 9.99992 8.83333C10.4419 8.83333 10.8659 9.00893 11.1784 9.32149C11.491 9.63405 11.6666 10.058 11.6666 10.5C11.6666 10.942 11.491 11.3659 11.1784 11.6785C10.8659 11.9911 10.4419 12.1667 9.99992 12.1667C9.55789 12.1667 9.13397 11.9911 8.82141 11.6785C8.50885 11.3659 8.33325 10.942 8.33325 10.5C8.33325 10.058 8.50885 9.63405 8.82141 9.32149Z" fill="#2E3F49"/>
<path fill-rule="evenodd" clip-rule="evenodd" d="M9.15075 1.33333C8.77221 1.33333 8.44123 1.58847 8.34487 1.95454L7.92257 3.55887L6.58087 4.12446L5.55383 3.21073C5.22407 2.91736 4.72276 2.93198 4.41066 3.24408L2.744 4.91074C2.44208 5.21266 2.4172 5.69394 2.68639 6.02537L3.5865 7.13362L3.03453 8.49156L1.47713 8.85515C1.10002 8.94319 0.833252 9.27941 0.833252 9.66666V11.3333C0.833252 11.7091 1.08474 12.0384 1.44726 12.1373L3.057 12.5764L3.62412 13.9218L2.7113 14.9454C2.41729 15.2751 2.43163 15.7769 2.744 16.0893L4.41066 17.7559C4.71299 18.0582 5.19506 18.0827 5.52646 17.8126L6.63432 16.9095L7.95888 17.4543L8.35861 19.0374C8.45205 19.4074 8.78493 19.6667 9.16658 19.6667H10.8333C11.2148 19.6667 11.5475 19.4076 11.6411 19.0378L12.0419 17.454L13.4107 16.8871C13.5485 17.0026 13.7065 17.1382 13.8637 17.2751C14.0199 17.4112 14.1651 17.5393 14.2714 17.6336C14.3244 17.6807 14.3677 17.7192 14.3975 17.7459L14.4428 17.7864C14.7723 18.082 15.2761 18.069 15.5892 17.7559L17.2558 16.0893C17.5625 15.7825 17.5827 15.2918 17.3022 14.961L16.3944 13.8906L16.9561 12.5338L18.5428 12.1215C18.9102 12.0261 19.1666 11.6945 19.1666 11.315V9.66666C19.1666 9.28556 18.9081 8.95302 18.5387 8.85906L16.9618 8.45787L16.4015 7.10445L17.303 6.03796C17.5827 5.70708 17.5622 5.21709 17.2558 4.91074L15.5892 3.24408C15.2816 2.93648 14.7891 2.91723 14.4585 3.19987L13.3998 4.10473L11.9988 3.52866L11.585 1.95481C11.4888 1.5886 11.1577 1.33333 10.7791 1.33333H9.15075ZM15.5346 15.4535L14.9644 16.0236L14.9582 16.0182C14.6504 15.7502 14.254 15.4111 14.0304 15.2513C13.7964 15.084 13.4926 15.0492 13.2269 15.1593L11.0177 16.0743C10.7746 16.175 10.5933 16.3846 10.5287 16.6397L10.1845 18H9.81565L9.47206 16.6393C9.40742 16.3833 9.22528 16.1731 8.98111 16.0727L6.80944 15.1793C6.52666 15.063 6.20288 15.1109 5.96588 15.3041L5.05687 16.0451L4.47901 15.4672L5.21854 14.638C5.43263 14.3979 5.48943 14.056 5.36448 13.7596L4.43531 11.5555C4.3359 11.3196 4.13364 11.1426 3.88674 11.0752L2.49992 10.6969V10.3279L3.83354 10.0165C4.097 9.955 4.31421 9.76942 4.41608 9.51879L5.31608 7.30463C5.43055 7.02302 5.38259 6.70142 5.19095 6.46546L4.45385 5.55791L5.03332 4.97844L5.86601 5.71926C6.10607 5.93284 6.44754 5.98937 6.74362 5.86456L8.94779 4.93539C9.18602 4.83496 9.36416 4.62965 9.42997 4.37963L9.79312 3H10.1365L10.4923 4.35352C10.5587 4.60617 10.7398 4.81306 10.9814 4.9124L13.2372 5.83989C13.5264 5.9588 13.8578 5.9058 14.0955 5.70263L14.9556 4.9675L15.5354 5.54734L14.801 6.41621C14.5997 6.65431 14.5482 6.98484 14.6674 7.2729L15.5816 9.48124C15.6822 9.7241 15.8914 9.9053 16.1461 9.9701L17.4999 10.3145V10.6705L16.1353 11.0251C15.8824 11.0908 15.6749 11.2714 15.575 11.5129L14.66 13.7229C14.5405 14.0114 14.5924 14.3425 14.7943 14.5806L15.5346 15.4535Z" fill="#2E3F49"/>
</svg>
