<svg width="20" height="19" viewBox="0 0 20 19" fill="none" xmlns="http://www.w3.org/2000/svg">
<path fill-rule="evenodd" clip-rule="evenodd" d="M9.99992 6.16666C9.11586 6.16666 8.26802 6.51785 7.6429 7.14298C7.01777 7.7681 6.66658 8.61594 6.66658 9.5C6.66658 10.3841 7.01777 11.2319 7.6429 11.857C8.26802 12.4821 9.11586 12.8333 9.99992 12.8333C10.884 12.8333 11.7318 12.4821 12.3569 11.857C12.9821 11.2319 13.3333 10.3841 13.3333 9.5C13.3333 8.61594 12.9821 7.7681 12.3569 7.14298C11.7318 6.51785 10.884 6.16666 9.99992 6.16666ZM8.82141 8.32149C9.13397 8.00893 9.55789 7.83333 9.99992 7.83333C10.4419 7.83333 10.8659 8.00893 11.1784 8.32149C11.491 8.63405 11.6666 9.05797 11.6666 9.5C11.6666 9.94203 11.491 10.3659 11.1784 10.6785C10.8659 10.9911 10.4419 11.1667 9.99992 11.1667C9.55789 11.1667 9.13397 10.9911 8.82141 10.6785C8.50885 10.3659 8.33325 9.94203 8.33325 9.5C8.33325 9.05797 8.50885 8.63405 8.82141 8.32149Z" fill="white"/>
<path fill-rule="evenodd" clip-rule="evenodd" d="M9.15075 0.333332C8.77221 0.333332 8.44123 0.588468 8.34487 0.954538L7.92257 2.55887L6.58087 3.12446L5.55383 2.21073C5.22407 1.91736 4.72276 1.93198 4.41066 2.24408L2.744 3.91074C2.44208 4.21266 2.4172 4.69394 2.68639 5.02537L3.5865 6.13362L3.03453 7.49156L1.47713 7.85515C1.10002 7.94319 0.833252 8.27941 0.833252 8.66666V10.3333C0.833252 10.7091 1.08474 11.0384 1.44726 11.1373L3.057 11.5764L3.62412 12.9217L2.7113 13.9454C2.41729 14.2751 2.43163 14.7769 2.744 15.0893L4.41066 16.7559C4.71299 17.0582 5.19506 17.0827 5.52646 16.8126L6.63432 15.9095L7.95888 16.4543L8.35861 18.0374C8.45205 18.4074 8.78493 18.6667 9.16658 18.6667H10.8333C11.2148 18.6667 11.5475 18.4076 11.6411 18.0378L12.0419 16.454L13.4107 15.8871C13.5485 16.0026 13.7065 16.1382 13.8637 16.2751C14.0199 16.4112 14.1651 16.5393 14.2714 16.6336C14.3244 16.6807 14.3677 16.7192 14.3975 16.7459L14.4428 16.7864C14.7723 17.082 15.2761 17.069 15.5892 16.7559L17.2558 15.0893C17.5625 14.7825 17.5827 14.2918 17.3022 13.961L16.3944 12.8906L16.9561 11.5338L18.5428 11.1215C18.9102 11.0261 19.1666 10.6945 19.1666 10.315V8.66666C19.1666 8.28556 18.9081 7.95302 18.5387 7.85906L16.9618 7.45787L16.4015 6.10445L17.303 5.03796C17.5827 4.70708 17.5622 4.21709 17.2558 3.91074L15.5892 2.24408C15.2816 1.93648 14.7891 1.91723 14.4585 2.19987L13.3998 3.10473L11.9988 2.52866L11.585 0.954805C11.4888 0.588604 11.1577 0.333332 10.7791 0.333332H9.15075ZM15.5346 14.4535L14.9644 15.0236L14.9582 15.0182C14.6504 14.7502 14.254 14.4111 14.0304 14.2513C13.7964 14.084 13.4926 14.0492 13.2269 14.1593L11.0177 15.0743C10.7746 15.175 10.5933 15.3846 10.5287 15.6397L10.1845 17H9.81565L9.47206 15.6393C9.40742 15.3833 9.22528 15.1731 8.98111 15.0727L6.80944 14.1793C6.52666 14.063 6.20288 14.1109 5.96588 14.3041L5.05687 15.0451L4.47901 14.4672L5.21854 13.638C5.43263 13.3979 5.48943 13.056 5.36448 12.7596L4.43531 10.5555C4.3359 10.3196 4.13364 10.1426 3.88674 10.0752L2.49992 9.69688V9.32786L3.83354 9.01651C4.097 8.955 4.31421 8.76942 4.41608 8.51879L5.31608 6.30463C5.43055 6.02302 5.38259 5.70142 5.19095 5.46546L4.45385 4.55791L5.03332 3.97844L5.86601 4.71926C6.10607 4.93284 6.44754 4.98937 6.74362 4.86456L8.94779 3.93539C9.18603 3.83496 9.36416 3.62965 9.42997 3.37963L9.79312 2H10.1365L10.4923 3.35352C10.5587 3.60617 10.7398 3.81306 10.9814 3.9124L13.2372 4.83989C13.5264 4.9588 13.8578 4.9058 14.0955 4.70263L14.9556 3.9675L15.5354 4.54734L14.801 5.41621C14.5997 5.65431 14.5482 5.98484 14.6674 6.2729L15.5816 8.48124C15.6822 8.7241 15.8914 8.9053 16.1461 8.9701L17.4999 9.31453V9.67053L16.1353 10.0251C15.8824 10.0908 15.6749 10.2714 15.575 10.5129L14.66 12.7229C14.5405 13.0114 14.5924 13.3425 14.7943 13.5806L15.5346 14.4535Z" fill="white"/>
</svg>
