<svg width="17" height="18" viewBox="0 0 17 18" fill="none" xmlns="http://www.w3.org/2000/svg">
<path fill-rule="evenodd" clip-rule="evenodd" d="M8.5 0C7.09104 0 5.73978 0.55605 4.7435 1.54583C3.74721 2.5356 3.1875 3.87802 3.1875 5.27778C3.1875 6.67753 3.74721 8.01995 4.7435 9.00973C4.81358 9.07936 4.88542 9.14683 4.95891 9.21212C4.04886 9.62642 3.21106 10.201 2.48959 10.9178C0.895533 12.5014 0 14.6493 0 16.8889V17.9444C0 18.5274 0.475697 19 1.0625 19C1.6493 19 2.125 18.5274 2.125 17.9444V16.8889C2.125 15.2092 2.79665 13.5983 3.99219 12.4105C5.18774 11.2228 6.80925 10.5556 8.5 10.5556C10.1908 10.5556 11.8123 11.2228 13.0078 12.4105C14.2033 13.5983 14.875 15.2092 14.875 16.8889V17.9444C14.875 18.5274 15.3507 19 15.9375 19C16.5243 19 17 18.5274 17 17.9444V16.8889C17 14.6493 16.1045 12.5014 14.5104 10.9178C13.7889 10.201 12.9511 9.62642 12.0411 9.21212C12.1146 9.14683 12.1864 9.07936 12.2565 9.00973C13.2528 8.01995 13.8125 6.67753 13.8125 5.27778C13.8125 3.87802 13.2528 2.5356 12.2565 1.54583C11.2602 0.55605 9.90896 0 8.5 0ZM6.2461 3.03861C6.84387 2.44474 7.65462 2.11111 8.5 2.11111C9.34538 2.11111 10.1561 2.44474 10.7539 3.03861C11.3517 3.63247 11.6875 4.43793 11.6875 5.27778C11.6875 6.11763 11.3517 6.92308 10.7539 7.51695C10.1561 8.11081 9.34538 8.44444 8.5 8.44444C7.65462 8.44444 6.84387 8.11081 6.2461 7.51695C5.64833 6.92308 5.3125 6.11763 5.3125 5.27778C5.3125 4.43793 5.64833 3.63247 6.2461 3.03861Z" fill="white"/>
</svg>
